<svg width="28" height="30" viewBox="0 0 28 30" fill="none" xmlns="http://www.w3.org/2000/svg">
<path d="M3.51652 2.14307H24.5228C25.3187 2.14307 26.082 2.44409 26.6448 2.9799C27.2076 3.51572 27.5237 4.24245 27.5237 5.00021V25.0002C27.5237 25.758 27.2076 26.4847 26.6448 27.0205C26.082 27.5563 25.3187 27.8573 24.5228 27.8573H3.51652C2.72064 27.8573 1.95735 27.5563 1.39457 27.0205C0.83179 26.4847 0.515625 25.758 0.515625 25.0002V5.00021C0.515625 4.24245 0.83179 3.51572 1.39457 2.9799C1.95735 2.44409 2.72064 2.14307 3.51652 2.14307ZM23.0224 5.00021H19.2712C17.8784 5.00021 16.5427 5.52699 15.5578 6.46467C14.573 7.40236 14.0197 8.67413 14.0197 10.0002V13.5716H11.0188V17.8573H14.0197V27.8573H18.521V17.8573H23.0224V13.5716H18.521V10.7145C18.521 10.3356 18.6791 9.97225 18.9605 9.70434C19.2419 9.43643 19.6235 9.28592 20.0215 9.28592H23.0224V5.00021Z" fill="white"/>
</svg>
