<svg width="353" height="192" viewBox="0 0 353 192" fill="none" xmlns="http://www.w3.org/2000/svg">
<g filter="url(#filter0_d)">
<path opacity="0.85" d="M178.322 182.161C177.122 183.628 174.878 183.628 173.678 182.161L165.285 171.899C163.683 169.94 165.076 167 167.607 167H184.393C186.924 167 188.317 169.94 186.715 171.899L178.322 182.161Z" fill="black"/>
<rect opacity="0.85" x="50" y="136" width="253" height="35" rx="5" fill="black"/>
<path d="M82.7959 149.32H71.9756C70.9502 149.32 70.1152 150.155 70.1152 151.181V158.715C70.1152 159.74 70.9502 160.57 71.9756 160.57H78.167C78.3037 160.57 78.4404 160.629 78.5381 160.727L81.6143 163.564C81.7852 163.73 82.0684 163.661 82.0684 163.422V160.951C82.0684 160.658 82.2539 160.565 82.5469 160.565H82.5957C83.6211 160.565 84.6514 159.74 84.6514 158.71V151.181C84.6562 150.15 83.8213 149.32 82.7959 149.32V149.32Z" fill="white"/>
<path d="M70.5156 148.124H79.1777V144.936C79.1777 144.057 78.4648 143.344 77.5859 143.344H65.9355C65.0566 143.344 64.3438 144.057 64.3438 144.936V153.002C64.3438 153.881 65.0566 154.594 65.9355 154.594H68.9189V149.716C68.9238 148.837 69.6367 148.124 70.5156 148.124V148.124Z" fill="white"/>
<rect x="65.4227" y="156.029" width="6.79221" height="6.79221" rx="3.3961" fill="#F2C94C" stroke="#333333"/>
<g clip-path="url(#clip0)">
<path d="M238.185 152.6L229.994 145.382C229.895 145.294 229.802 145.245 229.669 145.25C229.414 145.261 229.088 145.431 229.088 145.688V149.308C229.088 149.418 228.996 149.516 228.879 149.532C220.735 150.708 217.304 156.45 216.09 162.411C216.044 162.647 216.381 162.865 216.537 162.679C219.51 159.152 223.126 156.85 228.845 156.806C228.972 156.806 229.088 156.948 229.088 157.068V160.623C229.088 161.006 229.628 161.175 229.93 160.913L238.18 153.568C238.33 153.437 238.377 153.284 238.383 153.109C238.377 152.934 238.33 152.732 238.185 152.6V152.6Z" fill="white"/>
</g>
<path d="M248.73 158.13C248.158 158.13 247.621 158.087 247.118 158C246.615 157.905 246.191 157.775 245.844 157.61V155.595C246.243 155.777 246.68 155.924 247.157 156.037C247.634 156.15 248.076 156.206 248.483 156.206C248.951 156.206 249.285 156.167 249.484 156.089C249.692 156.002 249.796 155.838 249.796 155.595C249.796 155.439 249.744 155.313 249.64 155.218C249.545 155.114 249.402 155.027 249.211 154.958C249.02 154.88 248.717 154.776 248.301 154.646C248.162 154.611 248.058 154.581 247.989 154.555C247.417 154.373 246.966 154.174 246.637 153.957C246.316 153.74 246.082 153.48 245.935 153.177C245.796 152.865 245.727 152.479 245.727 152.02C245.727 151.197 246.022 150.573 246.611 150.148C247.2 149.715 248.067 149.498 249.211 149.498C249.653 149.498 250.117 149.537 250.602 149.615C251.096 149.684 251.503 149.771 251.824 149.875V151.903C251.061 151.6 250.32 151.448 249.601 151.448C249.142 151.448 248.795 151.483 248.561 151.552C248.336 151.621 248.223 151.773 248.223 152.007C248.223 152.154 248.271 152.271 248.366 152.358C248.461 152.445 248.604 152.523 248.795 152.592C248.994 152.653 249.328 152.744 249.796 152.865C250.463 153.047 250.975 153.268 251.33 153.528C251.694 153.779 251.945 154.07 252.084 154.399C252.223 154.728 252.292 155.127 252.292 155.595C252.292 156.375 251.989 156.995 251.382 157.454C250.784 157.905 249.9 158.13 248.73 158.13ZM253.698 149.628H256.142V152.748H259.028V149.628H261.472V158H259.028V154.88H256.142V158H253.698V149.628ZM266.099 149.628H268.686L271.897 158H269.349L268.647 156.219H266.125L265.436 158H262.888L266.099 149.628ZM268.322 154.464L267.386 152.007L266.45 154.464H268.322ZM273.309 149.628H277.664C278.652 149.628 279.397 149.897 279.9 150.434C280.403 150.971 280.654 151.695 280.654 152.605C280.654 153.16 280.515 153.654 280.238 154.087C279.961 154.512 279.584 154.841 279.107 155.075C279.202 155.153 279.285 155.244 279.354 155.348C279.423 155.452 279.501 155.604 279.588 155.803L280.55 158H278.002L277.118 155.985C277.049 155.829 276.962 155.721 276.858 155.66C276.763 155.591 276.624 155.556 276.442 155.556H275.753V158H273.309V149.628ZM277.04 153.684C277.395 153.684 277.668 153.593 277.859 153.411C278.058 153.22 278.158 152.952 278.158 152.605C278.158 151.868 277.811 151.5 277.118 151.5H275.753V153.684H277.04ZM282.061 149.628H288.405V151.5H284.505V152.865H287.924V154.763H284.505V156.128H288.405V158H282.061V149.628Z" fill="white"/>
<path d="M96.3607 158.13C94.844 158.13 93.687 157.762 92.8897 157.025C92.0923 156.28 91.6937 155.222 91.6937 153.853C91.6937 152.44 92.0837 151.361 92.8637 150.616C93.6523 149.871 94.8137 149.498 96.3477 149.498C96.8417 149.498 97.288 149.537 97.6867 149.615C98.094 149.684 98.5013 149.793 98.9087 149.94V152.072C98.1633 151.743 97.366 151.578 96.5167 151.578C95.7193 151.578 95.13 151.76 94.7487 152.124C94.376 152.488 94.1897 153.064 94.1897 153.853C94.1897 154.616 94.3847 155.175 94.7747 155.53C95.1733 155.877 95.7627 156.05 96.5427 156.05C97.4007 156.05 98.198 155.89 98.9347 155.569V157.714C98.1287 157.991 97.2707 158.13 96.3607 158.13ZM100.35 149.628H102.794V152.748H105.68V149.628H108.124V158H105.68V154.88H102.794V158H100.35V149.628ZM112.751 149.628H115.338L118.549 158H116.001L115.299 156.219H112.777L112.088 158H109.54L112.751 149.628ZM114.974 154.464L114.038 152.007L113.102 154.464H114.974ZM120.169 151.448H117.816V149.628H124.966V151.448H122.613V158H120.169V151.448ZM128.401 151.448H126.048V149.628H133.198V151.448H130.845V158H128.401V151.448ZM134.342 149.628H140.686V151.5H136.786V152.865H140.205V154.763H136.786V156.128H140.686V158H134.342V149.628ZM141.964 149.628H146.319C147.307 149.628 148.053 149.897 148.555 150.434C149.058 150.971 149.309 151.695 149.309 152.605C149.309 153.16 149.171 153.654 148.893 154.087C148.616 154.512 148.239 154.841 147.762 155.075C147.858 155.153 147.94 155.244 148.009 155.348C148.079 155.452 148.157 155.604 148.243 155.803L149.205 158H146.657L145.773 155.985C145.704 155.829 145.617 155.721 145.513 155.66C145.418 155.591 145.279 155.556 145.097 155.556H144.408V158H141.964V149.628ZM145.695 153.684C146.051 153.684 146.324 153.593 146.514 153.411C146.714 153.22 146.813 152.952 146.813 152.605C146.813 151.868 146.467 151.5 145.773 151.5H144.408V153.684H145.695Z" fill="white"/>
</g>
<g opacity="0.85" filter="url(#filter1_d)">
<rect x="4" y="42" width="345" height="89" rx="5" fill="black"/>
</g>
<path d="M23.918 59.408H29.624C30.956 59.408 31.964 59.792 32.648 60.56C33.344 61.316 33.692 62.312 33.692 63.548C33.692 64.34 33.524 65.042 33.188 65.654C32.852 66.266 32.366 66.746 31.73 67.094C31.106 67.43 30.38 67.598 29.552 67.598H26.816V71H23.918V59.408ZM28.904 65.366C29.504 65.366 29.96 65.204 30.272 64.88C30.584 64.544 30.74 64.094 30.74 63.53C30.74 62.918 30.596 62.45 30.308 62.126C30.02 61.802 29.582 61.64 28.994 61.64H26.816V65.366H28.904ZM38.413 71.18C35.209 71.18 33.607 69.698 33.607 66.734C33.607 65.294 34.003 64.196 34.795 63.44C35.599 62.672 36.805 62.288 38.413 62.288C40.033 62.288 41.239 62.666 42.031 63.422C42.835 64.178 43.237 65.282 43.237 66.734C43.237 69.698 41.629 71.18 38.413 71.18ZM38.413 68.912C39.085 68.912 39.565 68.744 39.853 68.408C40.141 68.072 40.285 67.514 40.285 66.734C40.285 65.954 40.135 65.396 39.835 65.06C39.547 64.724 39.073 64.556 38.413 64.556C37.753 64.556 37.279 64.73 36.991 65.078C36.703 65.414 36.559 65.966 36.559 66.734C36.559 67.514 36.703 68.072 36.991 68.408C37.279 68.744 37.753 68.912 38.413 68.912ZM46.9252 71.18C45.9892 71.18 45.3172 70.976 44.9092 70.568C44.5012 70.16 44.2972 69.506 44.2972 68.606V58.868H47.1952V68.318C47.1952 68.594 47.2492 68.786 47.3572 68.894C47.4652 68.99 47.6392 69.038 47.8792 69.038C48.2032 69.038 48.4912 68.996 48.7432 68.912V70.874C48.4552 70.982 48.1732 71.06 47.8972 71.108C47.6332 71.156 47.3092 71.18 46.9252 71.18ZM49.6417 58.94H52.7917V61.118H49.6417V58.94ZM49.8757 64.61H48.6157L48.8677 62.468H52.7737V71H49.8757V64.61ZM58.7175 71.18C57.1695 71.18 55.9695 70.802 55.1175 70.046C54.2775 69.29 53.8575 68.186 53.8575 66.734C53.8575 65.27 54.2955 64.166 55.1715 63.422C56.0475 62.666 57.2475 62.288 58.7715 62.288C59.3955 62.288 59.9355 62.336 60.3915 62.432C60.8595 62.516 61.3095 62.66 61.7415 62.864V64.916C61.0695 64.592 60.2835 64.43 59.3835 64.43C58.5075 64.43 57.8595 64.604 57.4395 64.952C57.0195 65.3 56.8095 65.894 56.8095 66.734C56.8095 67.538 57.0135 68.126 57.4215 68.498C57.8295 68.858 58.4775 69.038 59.3655 69.038C60.2415 69.038 61.0395 68.858 61.7595 68.498V70.64C60.9315 71 59.9175 71.18 58.7175 71.18ZM67.397 71.18C65.873 71.18 64.667 70.802 63.779 70.046C62.903 69.29 62.465 68.186 62.465 66.734C62.465 65.342 62.843 64.256 63.599 63.476C64.367 62.684 65.477 62.288 66.929 62.288C68.261 62.288 69.305 62.636 70.061 63.332C70.817 64.028 71.195 64.964 71.195 66.14V67.67H65.147C65.279 68.222 65.579 68.612 66.047 68.84C66.515 69.068 67.187 69.182 68.063 69.182C68.531 69.182 69.005 69.14 69.485 69.056C69.977 68.972 70.385 68.864 70.709 68.732V70.622C69.893 70.994 68.789 71.18 67.397 71.18ZM68.675 65.996V65.618C68.675 64.706 68.123 64.25 67.019 64.25C66.335 64.25 65.849 64.388 65.561 64.664C65.285 64.94 65.147 65.384 65.147 65.996H68.675ZM82.2098 59.408H85.3418L89.7698 71H86.7458L85.7018 68.372H81.8318L80.8058 71H77.7818L82.2098 59.408ZM85.3058 66.23L83.7578 62.198L82.2278 66.23H85.3058ZM94.6946 71.18C93.1466 71.18 91.9466 70.802 91.0946 70.046C90.2546 69.29 89.8346 68.186 89.8346 66.734C89.8346 65.27 90.2726 64.166 91.1486 63.422C92.0246 62.666 93.2246 62.288 94.7486 62.288C95.3726 62.288 95.9126 62.336 96.3686 62.432C96.8366 62.516 97.2866 62.66 97.7186 62.864V64.916C97.0466 64.592 96.2606 64.43 95.3606 64.43C94.4846 64.43 93.8366 64.604 93.4166 64.952C92.9966 65.3 92.7866 65.894 92.7866 66.734C92.7866 67.538 92.9906 68.126 93.3986 68.498C93.8066 68.858 94.4546 69.038 95.3426 69.038C96.2186 69.038 97.0166 68.858 97.7366 68.498V70.64C96.9086 71 95.8946 71.18 94.6946 71.18ZM101.855 71.18C100.823 71.18 100.049 70.916 99.5332 70.388C99.0292 69.86 98.7772 69.11 98.7772 68.138V64.664H97.6252V62.468H98.7772V60.686L101.675 59.912V62.468H103.745L103.619 64.664H101.675V67.94C101.675 68.348 101.771 68.636 101.963 68.804C102.155 68.96 102.467 69.038 102.899 69.038C103.247 69.038 103.601 68.978 103.961 68.858V70.82C103.397 71.06 102.695 71.18 101.855 71.18ZM105.694 58.94H108.844V61.118H105.694V58.94ZM105.928 64.61H104.668L104.92 62.468H108.826V71H105.928V64.61ZM109.909 62.468H112.933L114.805 68.012L116.695 62.468H119.719L116.353 71H113.275L109.909 62.468ZM121.186 58.94H124.336V61.118H121.186V58.94ZM121.42 64.61H120.16L120.412 62.468H124.318V71H121.42V64.61ZM129.272 71.18C128.24 71.18 127.466 70.916 126.95 70.388C126.446 69.86 126.194 69.11 126.194 68.138V64.664H125.042V62.468H126.194V60.686L129.092 59.912V62.468H131.162L131.036 64.664H129.092V67.94C129.092 68.348 129.188 68.636 129.38 68.804C129.572 68.96 129.884 69.038 130.316 69.038C130.664 69.038 131.018 68.978 131.378 68.858V70.82C130.814 71.06 130.112 71.18 129.272 71.18ZM133.814 74.168C133.37 74.168 132.992 74.144 132.68 74.096C132.38 74.06 132.086 73.982 131.798 73.862V71.846C132.134 71.966 132.5 72.026 132.896 72.026C133.376 72.026 133.742 71.942 133.994 71.774C134.246 71.606 134.498 71.294 134.75 70.838L130.916 62.468H133.958L136.208 67.886L138.422 62.468H141.446L138.188 70.298C137.66 71.57 137.06 72.53 136.388 73.178C135.716 73.838 134.858 74.168 133.814 74.168Z" fill="white"/>
<path d="M32.698 95H31.71V89.605L31.827 87.343H31.814L28.993 95H28.109L25.288 87.343H25.275L25.392 89.605V95H24.404V86.42H26.003L27.888 91.633L28.538 93.778H28.564L29.227 91.646L31.099 86.42H32.698V95ZM40.3947 94.246C40.568 94.246 40.7414 94.2243 40.9147 94.181L40.8497 95C40.607 95.0867 40.347 95.13 40.0697 95.13C39.7317 95.13 39.463 95.0563 39.2637 94.909C39.073 94.7617 38.9517 94.5147 38.8997 94.168C38.7004 94.4713 38.4057 94.7097 38.0157 94.883C37.6344 95.0477 37.2314 95.13 36.8067 95.13C36.1654 95.13 35.6367 94.9827 35.2207 94.688C34.8047 94.3847 34.5967 93.9513 34.5967 93.388C34.5967 92.894 34.8134 92.4693 35.2467 92.114C35.68 91.75 36.3084 91.4987 37.1317 91.36L38.8607 91.074V90.71C38.8607 90.2767 38.7264 89.93 38.4577 89.67C38.189 89.41 37.8164 89.28 37.3397 89.28C36.9064 89.28 36.5294 89.384 36.2087 89.592C35.8967 89.8 35.654 90.1077 35.4807 90.515L34.7137 89.956C34.887 89.4707 35.2077 89.085 35.6757 88.799C36.1524 88.513 36.707 88.37 37.3397 88.37C38.111 88.37 38.7307 88.5563 39.1987 88.929C39.6667 89.3017 39.9007 89.852 39.9007 90.58V93.778C39.9007 93.934 39.9397 94.051 40.0177 94.129C40.0957 94.207 40.2214 94.246 40.3947 94.246ZM36.8587 94.22C37.4047 94.22 37.8727 94.09 38.2627 93.83C38.6614 93.57 38.8607 93.232 38.8607 92.816V91.919L37.4047 92.192C36.824 92.296 36.3907 92.4477 36.1047 92.647C35.8187 92.8377 35.6757 93.0847 35.6757 93.388C35.6757 93.6567 35.7797 93.8647 35.9877 94.012C36.1957 94.1507 36.486 94.22 36.8587 94.22ZM47.96 85.51V95H47.05L46.985 93.869C46.7943 94.2503 46.4997 94.558 46.101 94.792C45.711 95.0173 45.2647 95.13 44.762 95.13C43.852 95.13 43.1283 94.831 42.591 94.233C42.0623 93.6263 41.798 92.7987 41.798 91.75C41.798 90.7013 42.0623 89.878 42.591 89.28C43.1283 88.6733 43.852 88.37 44.762 88.37C45.2387 88.37 45.6633 88.474 46.036 88.682C46.4173 88.89 46.712 89.1673 46.92 89.514V85.51H47.96ZM44.879 94.22C45.503 94.22 45.997 94.0033 46.361 93.57C46.7337 93.1367 46.92 92.556 46.92 91.828V91.672C46.92 90.944 46.7337 90.3633 46.361 89.93C45.997 89.4967 45.503 89.28 44.879 89.28C44.2463 89.28 43.748 89.5053 43.384 89.956C43.02 90.398 42.838 90.996 42.838 91.75C42.838 92.504 43.02 93.1063 43.384 93.557C43.748 93.999 44.2463 94.22 44.879 94.22ZM50.6565 87.252C50.4225 87.252 50.2318 87.1827 50.0845 87.044C49.9458 86.8967 49.8765 86.706 49.8765 86.472C49.8765 86.238 49.9458 86.0517 50.0845 85.913C50.2318 85.7657 50.4225 85.692 50.6565 85.692C50.8905 85.692 51.0768 85.7657 51.2155 85.913C51.3628 86.0517 51.4365 86.238 51.4365 86.472C51.4365 86.706 51.3628 86.8967 51.2155 87.044C51.0768 87.1827 50.8905 87.252 50.6565 87.252ZM51.1765 95H50.1365V88.5H51.1765V95ZM55.5596 95.13C54.9356 95.13 54.3723 95.0087 53.8696 94.766C53.3669 94.5147 52.9986 94.1463 52.7646 93.661L53.6096 93.076C53.7569 93.4573 54.0126 93.7433 54.3766 93.934C54.7406 94.1247 55.1696 94.22 55.6636 94.22C56.1749 94.22 56.5649 94.129 56.8336 93.947C57.1023 93.765 57.2366 93.5353 57.2366 93.258C57.2366 93.0067 57.1109 92.8073 56.8596 92.66C56.6083 92.504 56.1663 92.3697 55.5336 92.257C54.9096 92.1443 54.4156 92.01 54.0516 91.854C53.6876 91.6893 53.4233 91.4857 53.2586 91.243C53.0939 90.9917 53.0116 90.684 53.0116 90.32C53.0116 89.9647 53.1156 89.6397 53.3236 89.345C53.5316 89.0503 53.8306 88.8163 54.2206 88.643C54.6106 88.461 55.0613 88.37 55.5726 88.37C56.2659 88.37 56.8206 88.5 57.2366 88.76C57.6613 89.0113 57.9646 89.4013 58.1466 89.93L57.2626 90.45C57.1239 90.034 56.9116 89.735 56.6256 89.553C56.3483 89.371 55.9973 89.28 55.5726 89.28C55.1479 89.28 54.7883 89.3753 54.4936 89.566C54.1989 89.7567 54.0516 89.9777 54.0516 90.229C54.0516 90.515 54.1773 90.736 54.4286 90.892C54.6886 91.048 55.1479 91.1823 55.8066 91.295C56.7079 91.4423 57.3449 91.6633 57.7176 91.958C58.0903 92.2527 58.2766 92.6687 58.2766 93.206C58.2766 93.5787 58.1639 93.9123 57.9386 94.207C57.7219 94.493 57.4056 94.7183 56.9896 94.883C56.5823 95.0477 56.1056 95.13 55.5596 95.13ZM62.7081 88.37C63.6874 88.37 64.4544 88.669 65.0091 89.267C65.5724 89.865 65.8541 90.6927 65.8541 91.75C65.8541 92.8073 65.5724 93.635 65.0091 94.233C64.4544 94.831 63.6874 95.13 62.7081 95.13C61.7287 95.13 60.9574 94.831 60.3941 94.233C59.8394 93.635 59.5621 92.8073 59.5621 91.75C59.5621 90.6927 59.8394 89.865 60.3941 89.267C60.9574 88.669 61.7287 88.37 62.7081 88.37ZM62.7081 89.267C62.0494 89.267 61.5337 89.488 61.1611 89.93C60.7884 90.372 60.6021 90.9787 60.6021 91.75C60.6021 92.5213 60.7884 93.128 61.1611 93.57C61.5337 94.012 62.0494 94.233 62.7081 94.233C63.3667 94.233 63.8824 94.012 64.2551 93.57C64.6277 93.128 64.8141 92.5213 64.8141 91.75C64.8141 90.9787 64.6277 90.372 64.2551 89.93C63.8824 89.488 63.3667 89.267 62.7081 89.267ZM70.7932 88.37C71.5299 88.37 72.1366 88.5823 72.6132 89.007C73.0899 89.4317 73.3282 90.0427 73.3282 90.84V95H72.2882V91.204C72.2882 90.528 72.1409 90.0383 71.8462 89.735C71.5602 89.4317 71.1746 89.28 70.6892 89.28C70.3426 89.28 70.0176 89.358 69.7142 89.514C69.4109 89.6613 69.1596 89.9083 68.9602 90.255C68.7696 90.593 68.6742 91.022 68.6742 91.542V95H67.6342V88.5H68.5442L68.6092 89.514C68.8259 89.124 69.1249 88.838 69.5062 88.656C69.8876 88.4653 70.3166 88.37 70.7932 88.37ZM84.1439 92.621H80.2569L79.3469 95H78.2549L81.5959 86.42H82.8309L86.1589 95H85.0539L84.1439 92.621ZM83.7669 91.646L82.6099 88.604L82.2069 87.408H82.1809L81.8039 88.565L80.6339 91.646H83.7669ZM92.4313 88.5L89.7273 95H88.6873L85.9833 88.5H87.1663L89.2203 93.947L91.3393 88.5H92.4313ZM99.1272 91.412C99.1272 91.6547 99.1099 91.8973 99.0752 92.14H94.1742C94.2349 92.7987 94.4515 93.31 94.8242 93.674C95.2055 94.038 95.6952 94.22 96.2932 94.22C96.7699 94.22 97.1642 94.1377 97.4762 93.973C97.7969 93.8083 98.0135 93.57 98.1262 93.258L98.9972 93.713C98.7372 94.1723 98.3905 94.5233 97.9572 94.766C97.5239 95.0087 96.9692 95.13 96.2932 95.13C95.3139 95.13 94.5425 94.831 93.9792 94.233C93.4245 93.635 93.1472 92.8073 93.1472 91.75C93.1472 90.6927 93.4115 89.865 93.9402 89.267C94.4775 88.669 95.2359 88.37 96.2152 88.37C96.8219 88.37 97.3462 88.5043 97.7882 88.773C98.2302 89.0417 98.5639 89.4057 98.7892 89.865C99.0145 90.3243 99.1272 90.84 99.1272 91.412ZM96.2152 89.28C95.6432 89.28 95.1795 89.449 94.8242 89.787C94.4775 90.125 94.2652 90.6017 94.1872 91.217H98.1262C98.0569 90.6103 97.8575 90.138 97.5282 89.8C97.1989 89.4533 96.7612 89.28 96.2152 89.28ZM109.825 93.466C110.163 93.8213 110.444 94.0597 110.67 94.181C110.904 94.2937 111.177 94.35 111.489 94.35L111.229 95.13C110.882 95.13 110.57 95.065 110.293 94.935C110.015 94.805 109.673 94.5363 109.266 94.129C108.928 94.4497 108.542 94.6967 108.109 94.87C107.675 95.0433 107.203 95.13 106.692 95.13C106.163 95.13 105.691 95.0347 105.275 94.844C104.859 94.6533 104.534 94.389 104.3 94.051C104.074 93.713 103.962 93.3317 103.962 92.907C103.962 92.3697 104.118 91.893 104.43 91.477C104.75 91.0523 105.279 90.645 106.016 90.255C105.643 89.7697 105.383 89.384 105.236 89.098C105.097 88.812 105.028 88.5087 105.028 88.188C105.028 87.8673 105.106 87.564 105.262 87.278C105.418 86.9833 105.647 86.745 105.951 86.563C106.254 86.381 106.618 86.29 107.043 86.29C107.606 86.29 108.078 86.4373 108.46 86.732C108.85 87.018 109.045 87.46 109.045 88.058C109.045 88.552 108.928 88.981 108.694 89.345C108.468 89.709 108.022 90.086 107.355 90.476C107.502 90.6753 107.788 91.035 108.213 91.555L108.681 92.14L109.253 92.829C109.617 92.231 109.799 91.5333 109.799 90.736C109.799 90.58 109.794 90.463 109.786 90.385L110.618 90.489L110.631 90.801C110.631 91.2863 110.561 91.7587 110.423 92.218C110.284 92.6687 110.085 93.0847 109.825 93.466ZM107.03 87.174C106.7 87.174 106.445 87.2693 106.263 87.46C106.089 87.6507 106.003 87.889 106.003 88.175C106.003 88.4003 106.055 88.6213 106.159 88.838C106.263 89.046 106.492 89.3797 106.848 89.839C107.376 89.553 107.719 89.2757 107.875 89.007C108.039 88.7383 108.122 88.4307 108.122 88.084C108.122 87.4773 107.758 87.174 107.03 87.174ZM106.653 94.285C107.043 94.285 107.411 94.22 107.758 94.09C108.104 93.96 108.416 93.7693 108.694 93.518C108.399 93.1973 108.005 92.7293 107.511 92.114L106.549 90.931C105.916 91.295 105.487 91.62 105.262 91.906C105.045 92.1833 104.937 92.491 104.937 92.829C104.937 93.245 105.106 93.5917 105.444 93.869C105.782 94.1463 106.185 94.285 106.653 94.285ZM122.238 94.064V95H116.284V94.064H118.871V88.682C118.871 88.4913 118.88 88.1447 118.897 87.642C118.568 87.9367 118.178 88.1967 117.727 88.422C117.285 88.6473 116.848 88.812 116.414 88.916L116.141 87.967C116.349 87.941 116.653 87.8457 117.051 87.681C117.459 87.5077 117.849 87.3083 118.221 87.083C118.594 86.849 118.854 86.628 119.001 86.42H119.911V94.064H122.238ZM126.763 86.29C127.448 86.29 128.007 86.433 128.44 86.719C128.873 87.005 129.224 87.4643 129.493 88.097L128.531 88.552C128.254 87.694 127.643 87.265 126.698 87.265C126.247 87.265 125.844 87.4253 125.489 87.746C125.142 88.0667 124.869 88.5043 124.67 89.059C124.479 89.6137 124.384 90.229 124.384 90.905V91.139H124.436C124.566 90.6277 124.861 90.2377 125.32 89.969C125.779 89.7003 126.269 89.566 126.789 89.566C127.664 89.566 128.362 89.8173 128.882 90.32C129.411 90.8227 129.675 91.4987 129.675 92.348C129.675 93.1973 129.406 93.8733 128.869 94.376C128.34 94.8787 127.625 95.13 126.724 95.13C126.022 95.13 125.42 94.9437 124.917 94.571C124.423 94.1897 124.046 93.6697 123.786 93.011C123.535 92.3437 123.409 91.5767 123.409 90.71C123.409 89.774 123.552 88.9767 123.838 88.318C124.133 87.6507 124.531 87.148 125.034 86.81C125.545 86.4633 126.122 86.29 126.763 86.29ZM126.711 90.567C126.156 90.567 125.706 90.7317 125.359 91.061C125.012 91.3903 124.839 91.815 124.839 92.335C124.839 92.8723 125.008 93.3057 125.346 93.635C125.693 93.9643 126.148 94.129 126.711 94.129C127.3 94.129 127.76 93.973 128.089 93.661C128.418 93.3403 128.583 92.8983 128.583 92.335C128.583 91.789 128.418 91.36 128.089 91.048C127.76 90.7273 127.3 90.567 126.711 90.567ZM135.279 94.545C134.845 94.935 134.286 95.13 133.602 95.13C133.073 95.13 132.64 94.987 132.302 94.701C131.972 94.415 131.803 93.9773 131.795 93.388V89.397H130.495V88.5H131.795V86.94L132.835 86.654V88.5H135.24V89.397H132.835V93.206C132.835 93.518 132.921 93.7563 133.095 93.921C133.277 94.077 133.515 94.155 133.81 94.155C134.226 94.155 134.594 93.9947 134.915 93.674L135.279 94.545ZM139.666 88.37C140.403 88.37 141.009 88.5823 141.486 89.007C141.963 89.4317 142.201 90.0427 142.201 90.84V95H141.161V91.204C141.161 90.528 141.014 90.0383 140.719 89.735C140.433 89.4317 140.047 89.28 139.562 89.28C139.224 89.28 138.899 89.358 138.587 89.514C138.284 89.67 138.032 89.9213 137.833 90.268C137.642 90.606 137.547 91.035 137.547 91.555V95H136.507V85.51H137.547V89.475C137.764 89.1023 138.054 88.825 138.418 88.643C138.791 88.461 139.207 88.37 139.666 88.37ZM150.95 86.29C152.484 86.29 153.589 86.8967 154.265 88.11L153.368 88.838C153.108 88.266 152.796 87.863 152.432 87.629C152.076 87.3863 151.587 87.265 150.963 87.265C150.304 87.265 149.784 87.4037 149.403 87.681C149.03 87.9497 148.844 88.2963 148.844 88.721C148.844 88.9983 148.917 89.228 149.065 89.41C149.212 89.592 149.455 89.7523 149.793 89.891C150.139 90.021 150.616 90.138 151.223 90.242C152.358 90.4327 153.16 90.7187 153.628 91.1C154.104 91.4813 154.343 92.01 154.343 92.686C154.343 93.1713 154.204 93.6003 153.927 93.973C153.658 94.337 153.272 94.623 152.77 94.831C152.267 95.0303 151.686 95.13 151.028 95.13C150.161 95.13 149.42 94.961 148.805 94.623C148.198 94.285 147.734 93.8343 147.414 93.271L148.311 92.543C148.545 93.0543 148.887 93.453 149.338 93.739C149.797 94.0163 150.369 94.155 151.054 94.155C151.73 94.155 152.267 94.0337 152.666 93.791C153.064 93.5397 153.264 93.1887 153.264 92.738C153.264 92.3567 153.09 92.0533 152.744 91.828C152.397 91.6027 151.782 91.412 150.898 91.256C149.754 91.0567 148.943 90.7707 148.467 90.398C147.99 90.0253 147.752 89.5053 147.752 88.838C147.752 88.3787 147.882 87.954 148.142 87.564C148.402 87.174 148.774 86.8663 149.26 86.641C149.745 86.407 150.308 86.29 150.95 86.29ZM160.065 94.545C159.631 94.935 159.072 95.13 158.388 95.13C157.859 95.13 157.426 94.987 157.088 94.701C156.758 94.415 156.589 93.9773 156.581 93.388V89.397H155.281V88.5H156.581V86.94L157.621 86.654V88.5H160.026V89.397H157.621V93.206C157.621 93.518 157.707 93.7563 157.881 93.921C158.063 94.077 158.301 94.155 158.596 94.155C159.012 94.155 159.38 93.9947 159.701 93.674L160.065 94.545ZM166.87 91.412C166.87 91.6547 166.853 91.8973 166.818 92.14H161.917C161.978 92.7987 162.194 93.31 162.567 93.674C162.948 94.038 163.438 94.22 164.036 94.22C164.513 94.22 164.907 94.1377 165.219 93.973C165.54 93.8083 165.756 93.57 165.869 93.258L166.74 93.713C166.48 94.1723 166.133 94.5233 165.7 94.766C165.267 95.0087 164.712 95.13 164.036 95.13C163.057 95.13 162.285 94.831 161.722 94.233C161.167 93.635 160.89 92.8073 160.89 91.75C160.89 90.6927 161.154 89.865 161.683 89.267C162.22 88.669 162.979 88.37 163.958 88.37C164.565 88.37 165.089 88.5043 165.531 88.773C165.973 89.0417 166.307 89.4057 166.532 89.865C166.757 90.3243 166.87 90.84 166.87 91.412ZM163.958 89.28C163.386 89.28 162.922 89.449 162.567 89.787C162.22 90.125 162.008 90.6017 161.93 91.217H165.869C165.8 90.6103 165.6 90.138 165.271 89.8C164.942 89.4533 164.504 89.28 163.958 89.28ZM174.184 91.412C174.184 91.6547 174.166 91.8973 174.132 92.14H169.231C169.291 92.7987 169.508 93.31 169.881 93.674C170.262 94.038 170.752 94.22 171.35 94.22C171.826 94.22 172.221 94.1377 172.533 93.973C172.853 93.8083 173.07 93.57 173.183 93.258L174.054 93.713C173.794 94.1723 173.447 94.5233 173.014 94.766C172.58 95.0087 172.026 95.13 171.35 95.13C170.37 95.13 169.599 94.831 169.036 94.233C168.481 93.635 168.204 92.8073 168.204 91.75C168.204 90.6927 168.468 89.865 168.997 89.267C169.534 88.669 170.292 88.37 171.272 88.37C171.878 88.37 172.403 88.5043 172.845 88.773C173.287 89.0417 173.62 89.4057 173.846 89.865C174.071 90.3243 174.184 90.84 174.184 91.412ZM171.272 89.28C170.7 89.28 170.236 89.449 169.881 89.787C169.534 90.125 169.322 90.6017 169.244 91.217H173.183C173.113 90.6103 172.914 90.138 172.585 89.8C172.255 89.4533 171.818 89.28 171.272 89.28ZM179.708 94.545C179.275 94.935 178.716 95.13 178.031 95.13C177.502 95.13 177.069 94.987 176.731 94.701C176.402 94.415 176.233 93.9773 176.224 93.388V89.397H174.924V88.5H176.224V86.94L177.264 86.654V88.5H179.669V89.397H177.264V93.206C177.264 93.518 177.351 93.7563 177.524 93.921C177.706 94.077 177.944 94.155 178.239 94.155C178.655 94.155 179.023 93.9947 179.344 93.674L179.708 94.545ZM26.991 106.29C27.5543 106.29 28.0353 106.394 28.434 106.602C28.8413 106.801 29.149 107.07 29.357 107.408C29.565 107.746 29.669 108.119 29.669 108.526C29.669 108.925 29.5953 109.284 29.448 109.605C29.3007 109.926 29.1013 110.181 28.85 110.372C28.6073 110.554 28.343 110.645 28.057 110.645V110.671C28.603 110.671 29.0407 110.87 29.37 111.269C29.6993 111.659 29.864 112.136 29.864 112.699C29.864 113.158 29.7383 113.574 29.487 113.947C29.2443 114.32 28.8933 114.61 28.434 114.818C27.9747 115.026 27.446 115.13 26.848 115.13C25.418 115.13 24.43 114.445 23.884 113.076L24.898 112.543C25.0453 113.08 25.2707 113.483 25.574 113.752C25.8773 114.021 26.328 114.155 26.926 114.155C27.5067 114.155 27.9617 114.012 28.291 113.726C28.6203 113.431 28.785 113.054 28.785 112.595C28.785 112.066 28.6247 111.698 28.304 111.49C27.992 111.273 27.4937 111.165 26.809 111.165H26.471V110.19H26.809C27.9963 110.19 28.59 109.705 28.59 108.734C28.59 108.249 28.4513 107.885 28.174 107.642C27.9053 107.391 27.5153 107.265 27.004 107.265C26.5013 107.265 26.0983 107.382 25.795 107.616C25.5003 107.841 25.2967 108.162 25.184 108.578L24.209 108.123C24.417 107.56 24.768 107.113 25.262 106.784C25.7647 106.455 26.341 106.29 26.991 106.29ZM43.9866 115H42.9986V109.605L43.1156 107.343H43.1026L40.2816 115H39.3976L36.5766 107.343H36.5636L36.6806 109.605V115H35.6926V106.42H37.2916L39.1766 111.633L39.8266 113.778H39.8526L40.5156 111.646L42.3876 106.42H43.9866V115ZM46.8733 107.252C46.6393 107.252 46.4486 107.183 46.3013 107.044C46.1626 106.897 46.0933 106.706 46.0933 106.472C46.0933 106.238 46.1626 106.052 46.3013 105.913C46.4486 105.766 46.6393 105.692 46.8733 105.692C47.1073 105.692 47.2936 105.766 47.4323 105.913C47.5796 106.052 47.6533 106.238 47.6533 106.472C47.6533 106.706 47.5796 106.897 47.4323 107.044C47.2936 107.183 47.1073 107.252 46.8733 107.252ZM47.3933 115H46.3533V108.5H47.3933V115ZM50.5544 113.258C50.5544 113.587 50.6021 113.817 50.6974 113.947C50.8014 114.068 50.9877 114.129 51.2564 114.129C51.4384 114.129 51.5944 114.116 51.7244 114.09C51.8631 114.064 52.0234 114.016 52.2054 113.947L52.0364 114.948C51.7504 115.069 51.4297 115.13 51.0744 115.13C50.5457 115.13 50.1514 114.987 49.8914 114.701C49.6401 114.415 49.5144 113.977 49.5144 113.388V105.51H50.5544V113.258ZM58.877 111.412C58.877 111.655 58.8597 111.897 58.825 112.14H53.924C53.9847 112.799 54.2013 113.31 54.574 113.674C54.9553 114.038 55.445 114.22 56.043 114.22C56.5197 114.22 56.914 114.138 57.226 113.973C57.5467 113.808 57.7633 113.57 57.876 113.258L58.747 113.713C58.487 114.172 58.1403 114.523 57.707 114.766C57.2737 115.009 56.719 115.13 56.043 115.13C55.0637 115.13 54.2923 114.831 53.729 114.233C53.1743 113.635 52.897 112.807 52.897 111.75C52.897 110.693 53.1613 109.865 53.69 109.267C54.2273 108.669 54.9857 108.37 55.965 108.37C56.5717 108.37 57.096 108.504 57.538 108.773C57.98 109.042 58.3137 109.406 58.539 109.865C58.7643 110.324 58.877 110.84 58.877 111.412ZM55.965 109.28C55.393 109.28 54.9293 109.449 54.574 109.787C54.2273 110.125 54.015 110.602 53.937 111.217H57.876C57.8067 110.61 57.6073 110.138 57.278 109.8C56.9487 109.453 56.511 109.28 55.965 109.28ZM62.8237 115.13C62.1997 115.13 61.6364 115.009 61.1337 114.766C60.6311 114.515 60.2627 114.146 60.0287 113.661L60.8737 113.076C61.0211 113.457 61.2767 113.743 61.6407 113.934C62.0047 114.125 62.4337 114.22 62.9277 114.22C63.4391 114.22 63.8291 114.129 64.0977 113.947C64.3664 113.765 64.5007 113.535 64.5007 113.258C64.5007 113.007 64.3751 112.807 64.1237 112.66C63.8724 112.504 63.4304 112.37 62.7977 112.257C62.1737 112.144 61.6797 112.01 61.3157 111.854C60.9517 111.689 60.6874 111.486 60.5227 111.243C60.3581 110.992 60.2757 110.684 60.2757 110.32C60.2757 109.965 60.3797 109.64 60.5877 109.345C60.7957 109.05 61.0947 108.816 61.4847 108.643C61.8747 108.461 62.3254 108.37 62.8367 108.37C63.5301 108.37 64.0847 108.5 64.5007 108.76C64.9254 109.011 65.2287 109.401 65.4107 109.93L64.5267 110.45C64.3881 110.034 64.1757 109.735 63.8897 109.553C63.6124 109.371 63.2614 109.28 62.8367 109.28C62.4121 109.28 62.0524 109.375 61.7577 109.566C61.4631 109.757 61.3157 109.978 61.3157 110.229C61.3157 110.515 61.4414 110.736 61.6927 110.892C61.9527 111.048 62.4121 111.182 63.0707 111.295C63.9721 111.442 64.6091 111.663 64.9817 111.958C65.3544 112.253 65.5407 112.669 65.5407 113.206C65.5407 113.579 65.4281 113.912 65.2027 114.207C64.9861 114.493 64.6697 114.718 64.2537 114.883C63.8464 115.048 63.3697 115.13 62.8237 115.13ZM75.93 112.621H72.043L71.133 115H70.041L73.382 106.42H74.617L77.945 115H76.84L75.93 112.621ZM75.553 111.646L74.396 108.604L73.993 107.408H73.967L73.59 108.565L72.42 111.646H75.553ZM88.3493 108.5L86.0873 115H85.0473L83.2143 109.826L81.4853 115H80.4453L78.1833 108.5H79.3403L80.9783 113.791L82.7463 108.5H83.7863L85.5543 113.791L87.1923 108.5H88.3493ZM94.9954 114.246C95.1688 114.246 95.3421 114.224 95.5154 114.181L95.4504 115C95.2078 115.087 94.9478 115.13 94.6704 115.13C94.3324 115.13 94.0638 115.056 93.8644 114.909C93.6738 114.762 93.5524 114.515 93.5004 114.168C93.3011 114.471 93.0064 114.71 92.6164 114.883C92.2351 115.048 91.8321 115.13 91.4074 115.13C90.7661 115.13 90.2374 114.983 89.8214 114.688C89.4054 114.385 89.1974 113.951 89.1974 113.388C89.1974 112.894 89.4141 112.469 89.8474 112.114C90.2808 111.75 90.9091 111.499 91.7324 111.36L93.4614 111.074V110.71C93.4614 110.277 93.3271 109.93 93.0584 109.67C92.7898 109.41 92.4171 109.28 91.9404 109.28C91.5071 109.28 91.1301 109.384 90.8094 109.592C90.4974 109.8 90.2548 110.108 90.0814 110.515L89.3144 109.956C89.4878 109.471 89.8084 109.085 90.2764 108.799C90.7531 108.513 91.3078 108.37 91.9404 108.37C92.7118 108.37 93.3314 108.556 93.7994 108.929C94.2674 109.302 94.5014 109.852 94.5014 110.58V113.778C94.5014 113.934 94.5404 114.051 94.6184 114.129C94.6964 114.207 94.8221 114.246 94.9954 114.246ZM91.4594 114.22C92.0054 114.22 92.4734 114.09 92.8634 113.83C93.2621 113.57 93.4614 113.232 93.4614 112.816V111.919L92.0054 112.192C91.4248 112.296 90.9914 112.448 90.7054 112.647C90.4194 112.838 90.2764 113.085 90.2764 113.388C90.2764 113.657 90.3804 113.865 90.5884 114.012C90.7964 114.151 91.0868 114.22 91.4594 114.22ZM98.8779 116.092C98.6265 116.716 98.3449 117.154 98.0329 117.405C97.7209 117.665 97.3179 117.795 96.8239 117.795C96.4945 117.795 96.2172 117.752 95.9919 117.665C95.7752 117.578 95.5759 117.44 95.3939 117.249L95.7579 116.365C96.0092 116.712 96.3602 116.885 96.8109 116.885C97.0622 116.885 97.2832 116.807 97.4739 116.651C97.6732 116.504 97.8465 116.231 97.9939 115.832L98.3319 114.987L95.6149 108.5H96.7979L98.4229 112.738L98.8259 113.895L99.2939 112.608L100.815 108.5H101.933L98.8779 116.092Z" fill="white"/>
<path d="M297.009 108.3C298.183 108.3 298.953 108.787 299.319 109.76L297.909 110.42C297.783 109.913 297.449 109.66 296.909 109.66C296.556 109.66 296.269 109.833 296.049 110.18C295.836 110.527 295.729 110.997 295.729 111.59V111.76H295.759C295.859 111.487 296.053 111.273 296.339 111.12C296.633 110.967 296.973 110.89 297.359 110.89C297.766 110.89 298.123 110.973 298.429 111.14C298.743 111.307 298.983 111.547 299.149 111.86C299.323 112.167 299.409 112.527 299.409 112.94C299.409 113.6 299.189 114.127 298.749 114.52C298.316 114.907 297.723 115.1 296.969 115.1C296.076 115.1 295.389 114.807 294.909 114.22C294.429 113.627 294.189 112.787 294.189 111.7C294.189 110.947 294.309 110.317 294.549 109.81C294.796 109.297 295.129 108.917 295.549 108.67C295.976 108.423 296.463 108.3 297.009 108.3ZM296.939 112.05C296.659 112.05 296.436 112.13 296.269 112.29C296.109 112.443 296.029 112.657 296.029 112.93C296.029 113.203 296.109 113.42 296.269 113.58C296.436 113.733 296.659 113.81 296.939 113.81C297.226 113.81 297.449 113.733 297.609 113.58C297.769 113.427 297.849 113.21 297.849 112.93C297.849 112.65 297.769 112.433 297.609 112.28C297.449 112.127 297.226 112.05 296.939 112.05ZM308.952 108.4V115H307.232V112.34H304.712V115H302.992V108.4H304.712V111.01H307.232V108.4H308.952ZM313.124 109.9C313.351 109.9 313.531 109.937 313.664 110.01L313.484 111.45C313.418 111.41 313.328 111.377 313.214 111.35C313.101 111.317 312.981 111.3 312.854 111.3C312.534 111.3 312.268 111.403 312.054 111.61C311.841 111.81 311.734 112.1 311.734 112.48V115H310.034V110H311.534L311.604 111.08C311.724 110.7 311.911 110.41 312.164 110.21C312.424 110.003 312.744 109.9 313.124 109.9ZM316.083 115.1C314.936 115.1 314.123 114.807 313.643 114.22L314.523 113.26C314.81 113.733 315.303 113.97 316.003 113.97C316.236 113.97 316.42 113.94 316.553 113.88C316.686 113.813 316.753 113.727 316.753 113.62C316.753 113.527 316.683 113.447 316.543 113.38C316.41 113.307 316.176 113.237 315.843 113.17C315.096 113.023 314.563 112.823 314.243 112.57C313.93 112.317 313.773 111.98 313.773 111.56C313.773 111.273 313.863 111.003 314.043 110.75C314.223 110.497 314.493 110.293 314.853 110.14C315.22 109.98 315.663 109.9 316.183 109.9C316.756 109.9 317.223 109.98 317.583 110.14C317.95 110.293 318.246 110.527 318.473 110.84L317.593 111.7C317.433 111.467 317.243 111.297 317.023 111.19C316.803 111.083 316.54 111.03 316.233 111.03C315.993 111.03 315.806 111.067 315.673 111.14C315.54 111.213 315.473 111.303 315.473 111.41C315.473 111.51 315.54 111.597 315.673 111.67C315.813 111.737 316.053 111.803 316.393 111.87C317.126 111.997 317.653 112.187 317.973 112.44C318.3 112.687 318.463 113.027 318.463 113.46C318.463 113.947 318.26 114.343 317.853 114.65C317.446 114.95 316.856 115.1 316.083 115.1ZM325.783 113.51H323.503L323.043 115H321.313L323.633 108.4H325.693L328.003 115H326.233L325.783 113.51ZM325.423 112.34L324.943 110.76L324.653 109.72H324.633L324.363 110.75L323.863 112.34H325.423ZM331.58 113.89C332.16 113.89 332.607 114.017 332.92 114.27C333.24 114.523 333.4 114.897 333.4 115.39C333.4 115.957 333.147 116.39 332.64 116.69C332.14 116.997 331.457 117.15 330.59 117.15C329.717 117.15 329.07 117.047 328.65 116.84C328.237 116.633 328.03 116.343 328.03 115.97C328.03 115.75 328.107 115.557 328.26 115.39C328.414 115.223 328.647 115.103 328.96 115.03C328.447 114.81 328.19 114.463 328.19 113.99C328.19 113.757 328.264 113.55 328.41 113.37C328.557 113.19 328.757 113.057 329.01 112.97C328.464 112.677 328.19 112.22 328.19 111.6C328.19 111.06 328.404 110.643 328.83 110.35C329.257 110.05 329.857 109.9 330.63 109.9C330.99 109.9 331.324 109.937 331.63 110.01C331.697 109.61 331.847 109.283 332.08 109.03C332.314 108.777 332.637 108.65 333.05 108.65L333.21 108.66L333.4 109.79C333.267 109.777 333.174 109.77 333.12 109.77C332.894 109.77 332.704 109.81 332.55 109.89C332.404 109.97 332.297 110.08 332.23 110.22C332.79 110.513 333.07 110.973 333.07 111.6C333.07 112.14 332.857 112.557 332.43 112.85C332.004 113.143 331.404 113.29 330.63 113.29C330.27 113.29 329.95 113.26 329.67 113.2C329.464 113.253 329.36 113.37 329.36 113.55C329.36 113.777 329.534 113.89 329.88 113.89H331.58ZM330.63 110.87C330.41 110.87 330.23 110.937 330.09 111.07C329.957 111.203 329.89 111.38 329.89 111.6C329.89 111.82 329.957 111.997 330.09 112.13C330.23 112.257 330.41 112.32 330.63 112.32C330.85 112.32 331.027 112.257 331.16 112.13C331.3 111.997 331.37 111.82 331.37 111.6C331.37 111.38 331.3 111.203 331.16 111.07C331.027 110.937 330.85 110.87 330.63 110.87ZM330.71 116.05C331.15 116.05 331.484 116.003 331.71 115.91C331.944 115.823 332.06 115.707 332.06 115.56C332.06 115.453 332.014 115.373 331.92 115.32C331.827 115.267 331.67 115.24 331.45 115.24H330.08C329.807 115.24 329.61 115.267 329.49 115.32C329.377 115.38 329.32 115.47 329.32 115.59C329.32 115.897 329.784 116.05 330.71 116.05ZM336.234 109.9C337.068 109.9 337.714 110.13 338.174 110.59C338.641 111.043 338.874 111.68 338.874 112.5C338.874 113.32 338.641 113.96 338.174 114.42C337.714 114.873 337.068 115.1 336.234 115.1C335.401 115.1 334.751 114.873 334.284 114.42C333.824 113.96 333.594 113.32 333.594 112.5C333.594 111.68 333.824 111.043 334.284 110.59C334.751 110.13 335.401 109.9 336.234 109.9ZM336.234 111.11C335.914 111.11 335.678 111.22 335.524 111.44C335.371 111.66 335.294 112.013 335.294 112.5C335.294 112.987 335.371 113.34 335.524 113.56C335.678 113.78 335.914 113.89 336.234 113.89C336.554 113.89 336.791 113.78 336.944 113.56C337.098 113.34 337.174 112.987 337.174 112.5C337.174 112.013 337.098 111.66 336.944 111.44C336.791 111.22 336.554 111.11 336.234 111.11Z" fill="white"/>
<defs>
<filter id="filter0_d" x="46" y="134" width="261" height="59" filterUnits="userSpaceOnUse" color-interpolation-filters="sRGB">
<feFlood flood-opacity="0" result="BackgroundImageFix"/>
<feColorMatrix in="SourceAlpha" type="matrix" values="0 0 0 0 0 0 0 0 0 0 0 0 0 0 0 0 0 0 127 0"/>
<feOffset dy="4"/>
<feGaussianBlur stdDeviation="2"/>
<feColorMatrix type="matrix" values="0 0 0 0 0 0 0 0 0 0 0 0 0 0 0 0 0 0 0.25 0"/>
<feBlend mode="normal" in2="BackgroundImageFix" result="effect1_dropShadow"/>
<feBlend mode="normal" in="SourceGraphic" in2="effect1_dropShadow" result="shape"/>
</filter>
<filter id="filter1_d" x="0" y="42" width="353" height="97" filterUnits="userSpaceOnUse" color-interpolation-filters="sRGB">
<feFlood flood-opacity="0" result="BackgroundImageFix"/>
<feColorMatrix in="SourceAlpha" type="matrix" values="0 0 0 0 0 0 0 0 0 0 0 0 0 0 0 0 0 0 127 0"/>
<feOffset dy="4"/>
<feGaussianBlur stdDeviation="2"/>
<feColorMatrix type="matrix" values="0 0 0 0 0 0 0 0 0 0 0 0 0 0 0 0 0 0 0.25 0"/>
<feBlend mode="normal" in2="BackgroundImageFix" result="effect1_dropShadow"/>
<feBlend mode="normal" in="SourceGraphic" in2="effect1_dropShadow" result="shape"/>
</filter>
<clipPath id="clip0">
<rect width="23" height="18" fill="white" transform="translate(216 145)"/>
</clipPath>
</defs>
</svg>
