<svg width="31" height="30" viewBox="0 0 31 30" fill="none" xmlns="http://www.w3.org/2000/svg">
<path d="M8.70261 0.714355H21.3064C26.1078 0.714355 30.009 4.42864 30.009 9.00007V21.0001C30.009 23.1976 29.0921 25.3051 27.4601 26.859C25.828 28.4128 23.6145 29.2858 21.3064 29.2858H8.70261C3.90117 29.2858 0 25.5715 0 21.0001V9.00007C0 6.80256 0.91688 4.69506 2.54894 3.14119C4.18099 1.58731 6.39453 0.714355 8.70261 0.714355ZM8.40252 3.5715C6.96992 3.5715 5.596 4.11333 4.583 5.07781C3.57 6.04228 3.0009 7.35039 3.0009 8.71436V21.2858C3.0009 24.1286 5.41662 26.4286 8.40252 26.4286H21.6065C23.0391 26.4286 24.413 25.8868 25.426 24.9223C26.439 23.9579 27.0081 22.6498 27.0081 21.2858V8.71436C27.0081 5.8715 24.5924 3.5715 21.6065 3.5715H8.40252ZM22.8819 5.71436C23.3793 5.71436 23.8563 5.90249 24.2081 6.23738C24.5598 6.57227 24.7574 7.02647 24.7574 7.50007C24.7574 7.97367 24.5598 8.42788 24.2081 8.76276C23.8563 9.09765 23.3793 9.28578 22.8819 9.28578C22.3844 9.28578 21.9074 9.09765 21.5556 8.76276C21.2039 8.42788 21.0063 7.97367 21.0063 7.50007C21.0063 7.02647 21.2039 6.57227 21.5556 6.23738C21.9074 5.90249 22.3844 5.71436 22.8819 5.71436ZM15.0045 7.85721C16.9942 7.85721 18.9024 8.60976 20.3094 9.94931C21.7163 11.2889 22.5067 13.1057 22.5067 15.0001C22.5067 16.8945 21.7163 18.7113 20.3094 20.0508C18.9024 21.3904 16.9942 22.1429 15.0045 22.1429C13.0148 22.1429 11.1066 21.3904 9.69961 20.0508C8.29266 18.7113 7.50225 16.8945 7.50225 15.0001C7.50225 13.1057 8.29266 11.2889 9.69961 9.94931C11.1066 8.60976 13.0148 7.85721 15.0045 7.85721ZM15.0045 10.7144C13.8107 10.7144 12.6657 11.1659 11.8216 11.9696C10.9774 12.7733 10.5031 13.8634 10.5031 15.0001C10.5031 16.1367 10.9774 17.2268 11.8216 18.0305C12.6657 18.8343 13.8107 19.2858 15.0045 19.2858C16.1983 19.2858 17.3433 18.8343 18.1874 18.0305C19.0316 17.2268 19.5058 16.1367 19.5058 15.0001C19.5058 13.8634 19.0316 12.7733 18.1874 11.9696C17.3433 11.1659 16.1983 10.7144 15.0045 10.7144Z" fill="white"/>
</svg>
