<svg width="31" height="30" viewBox="0 0 31 30" fill="none" xmlns="http://www.w3.org/2000/svg">
<rect width="31" height="30" rx="5" fill="white"/>
<rect width="31" height="30" rx="5" fill="black"/>
<ellipse cx="15" cy="14.5" rx="11" ry="9.5" fill="white"/>
<path d="M25.6065 4.39343C22.7734 1.56024 19.0066 0 14.9999 0C10.9932 0 7.22653 1.56024 4.39341 4.39343C1.56029 7.2265 0 10.9933 0 15C0 19.0066 1.56029 22.7735 4.39341 25.6066C7.22653 28.4398 10.9934 30 15 30C19.0067 30 22.7735 28.4397 25.6066 25.6066C28.4397 22.7735 30 19.0066 30 15C30 10.9933 28.4397 7.2265 25.6065 4.39343ZM7.95168 9.12652H22.0483C22.5473 9.12652 22.9519 9.53111 22.9519 10.0301C22.9519 10.5291 22.5473 10.9337 22.0483 10.9337H7.95168C7.45264 10.9337 7.04811 10.5291 7.04811 10.0301C7.04805 9.53111 7.45264 9.12652 7.95168 9.12652ZM22.0483 20.8734H7.95168C7.45264 20.8734 7.04811 20.4688 7.04811 19.9698C7.04811 19.4708 7.4527 19.0663 7.95168 19.0663H22.0483C22.5473 19.0663 22.9519 19.4709 22.9519 19.9698C22.9519 20.4688 22.5473 20.8734 22.0483 20.8734ZM23.2531 15.9035H6.74688C6.24784 15.9035 5.84331 15.499 5.84331 15C5.84331 14.5009 6.2479 14.0964 6.74688 14.0964H23.2531C23.7521 14.0964 24.1566 14.501 24.1566 15C24.1566 15.499 23.7521 15.9035 23.2531 15.9035Z" fill="black"/>
</svg>
