<svg width="33" height="26" viewBox="0 0 33 26" fill="none" xmlns="http://www.w3.org/2000/svg">
<path d="M32.3265 3.50094C31.1423 4.00094 29.8657 4.32951 28.5431 4.48666C29.8965 3.72951 30.9423 2.52951 31.4345 1.08666C30.158 1.80094 28.743 2.30094 27.2512 2.58666C26.0362 1.35808 24.3291 0.643799 22.3913 0.643799C18.7771 0.643799 15.8242 3.38666 15.8242 6.77237C15.8242 7.25808 15.8857 7.72951 15.9933 8.17237C10.5182 7.91523 5.64286 5.47237 2.39777 1.77237C1.82872 2.67237 1.50575 3.72951 1.50575 4.8438C1.50575 6.97237 2.65922 8.85808 4.44325 9.92951C3.3513 9.92951 2.33625 9.6438 1.44423 9.21523C1.44423 9.21523 1.44423 9.21523 1.44423 9.25808C1.44423 12.2295 3.72041 14.7152 6.73482 15.2724C6.18115 15.4152 5.59673 15.4867 4.99692 15.4867C4.58167 15.4867 4.16642 15.4438 3.76655 15.3724C4.59705 17.7867 7.01165 19.5867 9.9184 19.6295C7.67297 21.2867 4.82774 22.2581 1.72106 22.2581C1.19816 22.2581 0.67525 22.2295 0.152344 22.1724C3.07447 23.9152 6.55026 24.9295 10.2721 24.9295C22.3913 24.9295 29.0506 15.5867 29.0506 7.48665C29.0506 7.21523 29.0506 6.95808 29.0352 6.68665C30.3271 5.82951 31.4345 4.7438 32.3265 3.50094Z" fill="white"/>
</svg>
